<svg width="368" height="72" viewBox="0 0 368 72" fill="none" xmlns="http://www.w3.org/2000/svg">
<path fill-rule="evenodd" clip-rule="evenodd" d="M0 6.84666V65.1533C0 68.9346 3.06535 72 6.84666 72H65.1533C68.9346 72 72 68.9346 72 65.1533V6.84666C72 3.06535 68.9346 0 65.1533 0H6.84666C3.06535 0 0 3.06535 0 6.84666Z" fill="url(#paint0_linear_801_87)"/>
<path fill-rule="evenodd" clip-rule="evenodd" d="M19.29 58.9295C22.1989 60.6882 28.0166 62.2174 33.6771 62.2174C47.2781 62.2174 53.7248 55.03 53.7248 46.6957C53.7248 39.2789 49.3222 34.7676 40.1238 31.4033C33.0482 28.7271 29.9821 26.8921 29.9821 22.916C29.9821 19.8576 32.5765 16.7226 38.7087 16.7226C43.6617 16.7226 47.3567 18.1754 49.3222 19.1694L51.6021 11.5997C48.8505 10.2234 44.6837 9 38.9446 9C27.3877 9 20.1548 15.3463 20.1548 23.8336C20.1548 31.2504 25.7367 35.7616 34.5419 38.8201C41.2245 41.1904 43.8975 43.4843 43.8975 47.3838C43.8975 51.5892 40.4383 54.4183 34.3061 54.4183C29.3531 54.4183 24.5574 52.8891 21.4913 51.1304L19.29 58.9295Z" fill="white"/>
<path fill-rule="evenodd" clip-rule="evenodd" d="M95.8725 49.0163C101.165 49.0163 104.873 46.2083 104.873 41.4923V41.4203C104.873 37.2443 102.101 35.3363 96.7725 34.0403C91.9485 32.8883 90.7965 32.0243 90.7965 30.0803V30.0083C90.7965 28.3523 92.3085 27.0203 94.9005 27.0203C97.2045 27.0203 99.4725 27.9203 101.741 29.6123L104.117 26.2643C101.561 24.2123 98.6445 23.0963 94.9725 23.0963C89.9685 23.0963 86.3685 26.0843 86.3685 30.4043V30.4763C86.3685 35.1203 89.3925 36.7043 94.7565 38.0003C99.4365 39.0803 100.445 40.0523 100.445 41.8523V41.9243C100.445 43.8323 98.7165 45.0923 95.9805 45.0923C92.8485 45.0923 90.4365 43.9043 88.0245 41.8163L85.3605 44.9843C88.3845 47.6843 92.0205 49.0163 95.8725 49.0163ZM108.714 48.6563H113.07V30.6563L120.954 42.4643H121.098L129.054 30.5843V48.6563H133.482V23.4563H128.766L121.098 35.3723L113.43 23.4563H108.714V48.6563ZM136.424 48.6563L147.512 23.2763H151.616L162.704 48.6563H158.024L155.468 42.5723H143.552L140.96 48.6563H136.424ZM145.172 38.6483H153.848L149.492 28.5683L145.172 38.6483ZM165.646 48.6563V23.4563H176.878C180.046 23.4563 182.53 24.3923 184.15 25.9763C185.482 27.3443 186.238 29.2163 186.238 31.4123V31.4843C186.238 35.6243 183.754 38.1083 180.226 39.1163L187.03 48.6563H181.81L175.618 39.8723H170.074V48.6563H165.646ZM170.074 35.9483H176.554C179.722 35.9483 181.738 34.2923 181.738 31.7363V31.6643C181.738 28.9643 179.794 27.4883 176.518 27.4883H170.074V35.9483ZM196.38 48.6563H200.844V27.5603H208.836V23.4563H188.388V27.5603H196.38V48.6563ZM220.418 49.0163C225.71 49.0163 229.418 46.2083 229.418 41.4923V41.4203C229.418 37.2443 226.646 35.3363 221.318 34.0403C216.494 32.8883 215.342 32.0243 215.342 30.0803V30.0083C215.342 28.3523 216.854 27.0203 219.446 27.0203C221.75 27.0203 224.018 27.9203 226.286 29.6123L228.662 26.2643C226.106 24.2123 223.19 23.0963 219.518 23.0963C214.514 23.0963 210.914 26.0843 210.914 30.4043V30.4763C210.914 35.1203 213.938 36.7043 219.302 38.0003C223.982 39.0803 224.99 40.0523 224.99 41.8523V41.9243C224.99 43.8323 223.262 45.0923 220.526 45.0923C217.394 45.0923 214.982 43.9043 212.57 41.8163L209.906 44.9843C212.93 47.6843 216.566 49.0163 220.418 49.0163ZM244.96 49.0883C249.676 49.0883 252.556 47.3603 255.184 44.6243L252.34 41.7443C250.18 43.7603 248.2 45.0203 245.104 45.0203C240.28 45.0203 236.788 40.9883 236.788 36.0563V35.9843C236.788 31.0523 240.28 27.0923 245.104 27.0923C247.984 27.0923 250.144 28.3523 252.16 30.2243L255.004 26.9483C252.592 24.6443 249.784 23.0243 245.14 23.0243C237.508 23.0243 232.144 28.8923 232.144 36.0563V36.1283C232.144 43.3643 237.616 49.0883 244.96 49.0883ZM258.45 48.6563H262.878V38.0363H274.902V48.6563H279.33V23.4563H274.902V33.9323H262.878V23.4563H258.45V48.6563ZM296.456 49.0883C288.716 49.0883 283.316 43.2203 283.316 36.1283V36.0563C283.316 28.9643 288.788 23.0243 296.528 23.0243C304.268 23.0243 309.668 28.8923 309.668 35.9843V36.0563C309.668 43.1483 304.196 49.0883 296.456 49.0883ZM296.528 45.0203C301.532 45.0203 305.024 41.0243 305.024 36.1283V36.0563C305.024 31.1603 301.46 27.0923 296.456 27.0923C291.452 27.0923 287.96 31.0883 287.96 35.9843V36.0563C287.96 40.9523 291.524 45.0203 296.528 45.0203ZM325.677 49.0883C317.937 49.0883 312.537 43.2203 312.537 36.1283V36.0563C312.537 28.9643 318.009 23.0243 325.749 23.0243C333.489 23.0243 338.889 28.8923 338.889 35.9843V36.0563C338.889 43.1483 333.417 49.0883 325.677 49.0883ZM325.749 45.0203C330.753 45.0203 334.245 41.0243 334.245 36.1283V36.0563C334.245 31.1603 330.681 27.0923 325.677 27.0923C320.673 27.0923 317.181 31.0883 317.181 35.9843V36.0563C317.181 40.9523 320.745 45.0203 325.749 45.0203ZM342.875 48.6563H360.551V44.6243H347.303V23.4563H342.875V48.6563Z" fill="#262626"/>
<defs>
<linearGradient id="paint0_linear_801_87" x1="0" y1="0" x2="0" y2="72" gradientUnits="userSpaceOnUse">
<stop stop-color="#FF840E"/>
<stop offset="0.0843099" stop-color="#FF710E"/>
<stop offset="0.734766" stop-color="#FF0000"/>
<stop offset="1" stop-color="#F10A00"/>
</linearGradient>
</defs>
</svg>
